<svg width="197" height="75" viewBox="0 0 197 75" fill="none" xmlns="http://www.w3.org/2000/svg">
<g clip-path="url(#clip0_6_2)">
<path d="M132.573 67.1138C132.573 67.1138 132.584 67.1029 132.587 67.0947C132.59 67.0892 132.593 67.0728 132.593 67.0728C135.843 54.8353 109.401 19.7771 89.3892 47.7762C89.2962 47.9072 89.217 48.0492 89.1568 48.1966C89.1021 48.3276 89.0611 48.4614 89.0338 48.6006C82.4241 82.3977 125.915 77.8908 132.573 67.1138Z" fill="#5CA659"/>
<path d="M117.618 74.8225C127.598 74.8935 137.431 71.1674 140.539 66.1419C140.547 66.131 140.555 66.1173 140.561 66.1064C140.564 66.101 140.569 66.0955 140.572 66.0901C140.58 66.0737 140.588 66.06 140.596 66.0436C140.613 66.0163 140.626 65.9891 140.64 65.9618C140.654 65.9345 140.665 65.9072 140.676 65.8799C140.684 65.858 140.695 65.8362 140.703 65.8143C140.717 65.7789 140.728 65.7406 140.738 65.7052C140.741 65.6942 140.747 65.6833 140.749 65.6697C140.749 65.6642 140.752 65.6588 140.752 65.656C140.755 65.6424 140.76 65.6287 140.763 65.6151C141.813 61.6542 140.263 55.7743 136.605 49.8671C132.806 43.7279 127.454 38.7161 121.918 36.1173C116.107 33.3903 104.896 30.9799 94.643 45.1201C91.1003 44.1838 87.5577 43.474 83.9959 42.9936C83.2496 42.8926 82.5526 43.3103 82.2683 43.9681C82.2109 44.1019 82.1699 44.2466 82.1507 44.3967C82.0305 45.2921 82.6592 46.1192 83.5558 46.2393C89.4766 47.0391 95.3455 48.4859 101.275 50.6151C100.889 53.424 101.075 56.3093 101.829 59.2138C102.056 60.0901 102.953 60.6142 103.83 60.3876C104.708 60.161 105.233 59.2657 105.006 58.3894C104.418 56.1292 104.235 53.9618 104.44 51.8107C107.772 53.1374 111.126 54.6769 114.527 56.4404C115.33 56.858 116.32 56.5441 116.738 55.7416C117.159 54.9308 116.842 53.9508 116.038 53.5332C114.352 52.6569 112.676 51.8435 111.009 51.0709C112.766 49.5259 114.784 48.2811 117.033 47.3749C117.872 47.0364 118.277 46.081 117.938 45.2429C117.599 44.4049 116.642 43.9981 115.803 44.3394C112.736 45.5787 110.027 47.3585 107.753 49.6296C104.489 48.2484 101.25 47.0664 98.0189 46.0782C104.549 37.646 112.299 35.222 120.519 39.0819C125.491 41.4158 130.335 45.9745 133.812 51.5896C136.843 56.4868 138.325 61.5396 137.636 64.5778C135.034 68.4977 126.155 71.6096 117.632 71.5468C108.917 71.4841 102.075 68.3175 98.8635 62.8635C98.4043 62.0828 97.3984 61.8234 96.6193 62.282C96.3077 62.4649 96.0781 62.7379 95.9441 63.0464C95.7446 63.5104 95.761 64.0564 96.0371 64.5259C99.8585 70.9982 107.723 74.7516 117.618 74.8225Z" fill="#244022"/>
<path d="M52.5712 15.5159C52.5712 15.5159 52.5685 15.4995 52.5658 15.494C52.563 15.4858 52.5521 15.4749 52.5521 15.4749C45.8112 4.74972 2.10755 0.12279 8.94137 33.8353C8.97418 33.9936 9.03705 34.141 9.10265 34.2884C9.16006 34.4167 9.22019 34.545 9.3022 34.6596C29.5303 62.5495 55.9143 27.7315 52.5712 15.5159Z" fill="#5CA659"/>
<path d="M24.6018 39.4668C24.4651 39.1583 24.4241 38.8062 24.5034 38.4541C24.7002 37.5724 25.5776 37.0155 26.4606 37.212C32.6466 38.5906 39.6307 35.7571 45.6254 29.4404C51.5817 23.162 55.395 14.3804 54.1266 9.86535C53.8806 8.99455 54.3918 8.091 55.2638 7.84533C56.1358 7.59965 57.0406 8.10738 57.2866 8.98091C58.8857 14.6697 54.8975 24.434 48.009 31.6952C41.2025 38.869 33.0894 42.0464 25.7471 40.4113C25.2168 40.2912 24.8041 39.9281 24.6018 39.4668Z" fill="#244022"/>
<path d="M31.7308 31.7225C31.6816 30.819 30.9108 30.1256 30.006 30.1747C26.9253 30.3385 24.651 29.4186 23.0245 27.2976C25.1512 26.3695 27.1932 25.4059 29.1613 24.4122C30.5964 26.3012 32.7149 27.6579 35.566 28.5232C36.4325 28.788 37.3482 28.2994 37.6134 27.4341C37.8758 26.5687 37.3892 25.6543 36.5227 25.3895C34.5983 24.8026 33.1605 23.9782 32.1409 22.859C34.9837 21.314 37.6435 19.6979 40.1118 18.0137C40.8608 17.5032 41.0522 16.4823 40.541 15.7371C40.0298 14.9891 39.0102 14.798 38.2612 15.3085C35.9541 16.8808 33.4694 18.3931 30.8206 19.8454C30.8534 17.3585 31.3263 14.9727 32.2311 12.7453C32.57 11.9072 32.1682 10.9518 31.3263 10.6106C30.4871 10.2721 29.5303 10.6761 29.1914 11.5141C27.9722 14.5141 27.4228 17.7407 27.5595 21.1065C27.5595 21.1092 27.5595 21.1092 27.5595 21.112C27.5622 21.2048 27.5759 21.2976 27.5977 21.3904C27.6005 21.4013 27.6005 21.415 27.6032 21.4259C27.6114 21.4559 27.6223 21.4887 27.6305 21.5187C25.6761 22.5041 23.6396 23.4595 21.5211 24.3822C20.6956 20.3886 21.2532 16.9846 23.235 13.9955C23.7353 13.2421 23.5275 12.2239 22.7703 11.7271C22.0159 11.2275 20.9963 11.435 20.4988 12.1884C17.9784 15.9937 17.2705 20.4514 18.3912 25.4386C18.4103 25.5178 18.4349 25.5942 18.4623 25.6652C16.9452 26.2821 15.3925 26.8827 13.7989 27.4668C11.6558 16.3595 15.1164 8.65609 23.8391 5.17565C28.9426 3.13925 35.5851 2.71341 42.0636 4.01005C47.8614 5.17019 52.6697 7.63243 54.3125 10.283C54.7882 11.0528 55.7996 11.2903 56.5704 10.8153C57.3413 10.3403 57.5791 9.33034 57.1035 8.56055C54.9412 5.06919 49.5617 2.16746 42.7087 0.799855C35.6207 -0.616888 28.3003 -0.130992 22.6227 2.1347C16.6172 4.53143 7.10174 11.1511 10.6745 28.5778C7.63751 29.6206 4.48301 30.6142 1.19458 31.5478C0.322582 31.7962 -0.183121 32.6998 0.0656303 33.5706C0.0874985 33.6443 0.1121 33.7152 0.142169 33.7835C0.467459 34.5205 1.29299 34.9245 2.09118 34.6979C8.5095 32.8745 14.4659 30.8353 19.9493 28.5969C22.2428 32.0146 25.7307 33.6852 30.1837 33.4477C31.0857 33.3986 31.78 32.6261 31.7308 31.7225Z" fill="#244022"/>
<path d="M52.5712 15.5159C52.5712 15.5159 52.5685 15.4995 52.5658 15.494C52.563 15.4858 52.5521 15.4749 52.5521 15.4749C45.8112 4.74972 2.10755 0.12279 8.94137 33.8353C8.97418 33.9936 9.03705 34.141 9.10265 34.2884C9.16006 34.4167 9.22019 34.545 9.3022 34.6596C29.5303 62.5495 55.9143 27.7315 52.5712 15.5159Z" fill="#5CA659"/>
<path d="M24.6018 39.4668C24.4651 39.1583 24.4241 38.8062 24.5034 38.4541C24.7002 37.5724 25.5776 37.0155 26.4606 37.212C32.6466 38.5906 39.6307 35.7571 45.6254 29.4404C51.5817 23.162 55.395 14.3804 54.1266 9.86535C53.8806 8.99455 54.3918 8.091 55.2638 7.84533C56.1358 7.59965 57.0406 8.10738 57.2866 8.98091C58.8857 14.6697 54.8975 24.434 48.009 31.6952C41.2025 38.869 33.0894 42.0464 25.7471 40.4113C25.2168 40.2912 24.8041 39.9281 24.6018 39.4668Z" fill="#244022"/>
<path d="M31.7308 31.7225C31.6816 30.819 30.9108 30.1256 30.006 30.1747C26.9253 30.3385 24.651 29.4186 23.0245 27.2976C25.1512 26.3695 27.1932 25.4059 29.1613 24.4122C30.5964 26.3012 32.7149 27.6579 35.566 28.5232C36.4325 28.788 37.3482 28.2994 37.6134 27.4341C37.8758 26.5687 37.3892 25.6543 36.5227 25.3895C34.5983 24.8026 33.1605 23.9782 32.1409 22.859C34.9837 21.314 37.6435 19.6979 40.1118 18.0137C40.8608 17.5032 41.0522 16.4823 40.541 15.7371C40.0298 14.9891 39.0102 14.798 38.2612 15.3085C35.9541 16.8808 33.4694 18.3931 30.8206 19.8454C30.8534 17.3585 31.3263 14.9727 32.2311 12.7453C32.57 11.9072 32.1682 10.9518 31.3263 10.6106C30.4871 10.2721 29.5303 10.6761 29.1914 11.5141C27.9722 14.5141 27.4228 17.7407 27.5595 21.1065C27.5595 21.1092 27.5595 21.1092 27.5595 21.112C27.5622 21.2048 27.5759 21.2976 27.5977 21.3904C27.6005 21.4013 27.6005 21.415 27.6032 21.4259C27.6114 21.4559 27.6223 21.4887 27.6305 21.5187C25.6761 22.5041 23.6396 23.4595 21.5211 24.3822C20.6956 20.3886 21.2532 16.9846 23.235 13.9955C23.7353 13.2421 23.5275 12.2239 22.7703 11.7271C22.0159 11.2275 20.9963 11.435 20.4988 12.1884C17.9784 15.9937 17.2705 20.4514 18.3912 25.4386C18.4103 25.5178 18.4349 25.5942 18.4623 25.6652C16.9452 26.2821 15.3925 26.8827 13.7989 27.4668C11.6558 16.3595 15.1164 8.65609 23.8391 5.17565C28.9426 3.13925 35.5851 2.71341 42.0636 4.01005C47.8614 5.17019 52.6697 7.63243 54.3125 10.283C54.7882 11.0528 55.7996 11.2903 56.5704 10.8153C57.3413 10.3403 57.5791 9.33034 57.1035 8.56055C54.9412 5.06919 49.5617 2.16746 42.7087 0.799855C35.6207 -0.616888 28.3003 -0.130992 22.6227 2.1347C16.6172 4.53143 7.10174 11.1511 10.6745 28.5778C7.63751 29.6206 4.48301 30.6142 1.19458 31.5478C0.322582 31.7962 -0.183121 32.6998 0.0656303 33.5706C0.0874985 33.6443 0.1121 33.7152 0.142169 33.7835C0.467459 34.5205 1.29299 34.9245 2.09118 34.6979C8.5095 32.8745 14.4659 30.8353 19.9493 28.5969C22.2428 32.0146 25.7307 33.6852 30.1837 33.4477C31.0857 33.3986 31.78 32.6261 31.7308 31.7225Z" fill="#244022"/>
<path d="M193.274 22.253C193.274 22.253 193.274 22.2639 193.271 22.2693C193.271 22.2748 193.263 22.283 193.263 22.283C189.376 30.0082 159.961 35.9782 162.424 12.6142C162.435 12.505 162.47 12.3985 162.506 12.2975C162.536 12.2075 162.568 12.1147 162.618 12.0328C174.563 -8.2384 194.756 13.7334 193.274 22.253Z" fill="#5CA659"/>
<path d="M172.707 7.7743C172.636 7.99268 172.631 8.23562 172.707 8.47038C172.898 9.05728 173.53 9.37939 174.118 9.18831C178.234 7.85073 183.168 9.32753 187.651 13.2338C192.107 17.1182 195.27 22.8425 194.698 25.9927C194.589 26.6014 194.994 27.1828 195.6 27.292C196.21 27.4012 196.792 26.9972 196.902 26.3912C197.62 22.4194 194.275 16.0373 189.122 11.5468C184.029 7.10824 178.305 5.47311 173.423 7.0591C173.073 7.17648 172.816 7.44945 172.707 7.7743Z" fill="#244022"/>
<path d="M178.057 12.5787C178.081 13.1957 177.603 13.717 176.982 13.7416C174.878 13.829 173.391 14.6015 172.423 16.1465C173.929 16.6406 175.378 17.1647 176.78 17.7107C177.633 16.3349 178.986 15.2757 180.867 14.5005C181.438 14.2657 182.094 14.5387 182.329 15.1092C182.564 15.6797 182.291 16.3349 181.72 16.5696C180.448 17.091 179.525 17.7462 178.904 18.5733C180.938 19.4413 182.849 20.3667 184.639 21.3522C185.18 21.6497 185.377 22.3322 185.079 22.8726C184.781 23.4131 184.098 23.6097 183.556 23.3121C181.886 22.3922 180.099 21.5241 178.204 20.7079C178.387 22.3977 178.863 23.9864 179.623 25.4441C179.907 25.9928 179.697 26.667 179.147 26.9536C178.598 27.2375 177.923 27.0246 177.636 26.4786C176.613 24.5187 176.031 22.3594 175.905 20.061V20.0583C175.903 19.9955 175.905 19.93 175.914 19.8672C175.914 19.859 175.914 19.8508 175.916 19.8426C175.919 19.8208 175.924 19.7989 175.93 19.7771C174.536 19.2339 173.093 18.7152 171.592 18.2239C171.288 20.9946 171.89 23.2712 173.429 25.1766C173.817 25.657 173.743 26.3613 173.262 26.7489C172.781 27.1365 172.076 27.0628 171.688 26.5824C169.728 24.1584 168.957 21.1747 169.397 17.7107C169.405 17.6561 169.416 17.6042 169.43 17.5524C168.358 17.2302 167.262 16.9245 166.144 16.6297C165.406 24.3194 168.257 29.334 174.413 31.1356C178.013 32.1893 182.559 32.0501 186.88 30.7507C190.748 29.5878 193.856 27.6033 194.802 25.6952C195.076 25.1411 195.748 24.9145 196.303 25.1875C196.858 25.4605 197.085 26.132 196.811 26.6861C195.568 29.2002 192.096 31.5205 187.528 32.8936C182.802 34.3158 177.791 34.4577 173.784 33.2839C169.544 32.0419 162.648 28.1547 163.949 16.0783C161.817 15.5651 159.608 15.0928 157.312 14.6725C156.702 14.5605 156.3 13.9764 156.413 13.3704C156.421 13.3185 156.434 13.2694 156.451 13.2202C156.623 12.6988 157.159 12.3685 157.716 12.4723C162.199 13.2967 166.379 14.2985 170.252 15.4668C171.592 12.9964 173.852 11.6342 176.898 11.5087C177.51 11.4814 178.032 11.9618 178.057 12.5787Z" fill="#244022"/>
<path d="M193.274 22.253C193.274 22.253 193.274 22.2639 193.271 22.2693C193.271 22.2748 193.263 22.283 193.263 22.283C189.376 30.0082 159.961 35.9782 162.424 12.6142C162.435 12.505 162.47 12.3985 162.506 12.2975C162.536 12.2075 162.568 12.1147 162.618 12.0328C174.563 -8.2384 194.756 13.7334 193.274 22.253Z" fill="#5CA659"/>
<path d="M172.707 7.7743C172.636 7.99268 172.631 8.23562 172.707 8.47038C172.898 9.05728 173.53 9.37939 174.118 9.18831C178.234 7.85073 183.168 9.32753 187.651 13.2338C192.107 17.1182 195.27 22.8425 194.698 25.9927C194.589 26.6014 194.994 27.1828 195.6 27.292C196.21 27.4012 196.792 26.9972 196.902 26.3912C197.62 22.4194 194.275 16.0373 189.122 11.5468C184.029 7.10824 178.305 5.47311 173.423 7.0591C173.073 7.17648 172.816 7.44945 172.707 7.7743Z" fill="#244022"/>
<path d="M178.057 12.5787C178.081 13.1957 177.603 13.717 176.982 13.7416C174.878 13.829 173.391 14.6015 172.423 16.1465C173.929 16.6406 175.378 17.1647 176.78 17.7107C177.633 16.3349 178.986 15.2757 180.867 14.5005C181.438 14.2657 182.094 14.5387 182.329 15.1092C182.564 15.6797 182.291 16.3349 181.72 16.5696C180.448 17.091 179.525 17.7462 178.904 18.5733C180.938 19.4413 182.849 20.3667 184.639 21.3522C185.18 21.6497 185.377 22.3322 185.079 22.8726C184.781 23.4131 184.098 23.6097 183.556 23.3121C181.886 22.3922 180.099 21.5241 178.204 20.7079C178.387 22.3977 178.863 23.9864 179.623 25.4441C179.907 25.9928 179.697 26.667 179.147 26.9536C178.598 27.2375 177.923 27.0246 177.636 26.4787C176.613 24.5187 176.031 22.3594 175.905 20.061V20.0583C175.903 19.9955 175.905 19.93 175.914 19.8672C175.914 19.859 175.914 19.8508 175.916 19.8426C175.919 19.8208 175.924 19.7989 175.93 19.7771C174.536 19.2339 173.093 18.7152 171.592 18.2239C171.288 20.9946 171.89 23.2712 173.429 25.1766C173.817 25.657 173.743 26.3613 173.262 26.7489C172.781 27.1365 172.076 27.0628 171.688 26.5824C169.728 24.1584 168.957 21.1747 169.397 17.7107C169.405 17.6561 169.416 17.6042 169.43 17.5524C168.358 17.2302 167.262 16.9245 166.144 16.6297C165.406 24.3194 168.257 29.334 174.413 31.1356C178.013 32.1893 182.559 32.0501 186.88 30.7507C190.748 29.5878 193.856 27.6033 194.802 25.6952C195.076 25.1411 195.748 24.9145 196.303 25.1875C196.858 25.4605 197.085 26.132 196.811 26.6861C195.568 29.2002 192.096 31.5205 187.528 32.8936C182.802 34.3158 177.791 34.4577 173.784 33.2839C169.544 32.0419 162.648 28.1547 163.949 16.0783C161.817 15.5651 159.608 15.0928 157.312 14.6725C156.702 14.5605 156.3 13.9764 156.413 13.3704C156.421 13.3185 156.434 13.2694 156.451 13.2202C156.623 12.6988 157.159 12.3685 157.716 12.4723C162.199 13.2967 166.379 14.2985 170.252 15.4668C171.592 12.9964 173.852 11.6342 176.898 11.5087C177.51 11.4814 178.032 11.9618 178.057 12.5787Z" fill="#244022"/>
</g>
<defs>
<clipPath id="clip0_6_2">
<rect width="197" height="75" fill="white"/>
</clipPath>
</defs>
</svg>
